<svg width="1200" height="300" xmlns="http://www.w3.org/2000/svg">
  <defs>
    <linearGradient id="skyGradient" x1="0%" y1="0%" x2="0%" y2="100%">
      <stop offset="0%" stop-color="#00C9FF" stop-opacity="0.2"/>
      <stop offset="100%" stop-color="#FF1E88" stop-opacity="0.7"/>
    </linearGradient>
    <filter id="glow" x="-20%" y="-20%" width="140%" height="140%">
      <feGaussianBlur stdDeviation="5" result="blur"/>
      <feComposite in="SourceGraphic" in2="blur" operator="over"/>
    </filter>
  </defs>
  
  <!-- Base skyline silhouette -->
  <g fill="#2D0B59" filter="url(#glow)">
    <!-- Buildings -->
    <rect x="0" y="150" width="30" height="150"/>
    <rect x="40" y="180" width="20" height="120"/>
    <rect x="70" y="100" width="40" height="200"/>
    <rect x="120" y="140" width="30" height="160"/>
    <rect x="160" y="90" width="35" height="210"/>
    <rect x="205" y="120" width="25" height="180"/>
    <rect x="240" y="150" width="50" height="150"/>
    <rect x="300" y="50" width="15" height="250"/>
    <rect x="325" y="140" width="35" height="160"/>
    <rect x="370" y="180" width="25" height="120"/>
    <rect x="405" y="80" width="45" height="220"/>
    <rect x="460" y="140" width="30" height="160"/>
    <rect x="500" y="60" width="20" height="240"/>
    <rect x="530" y="110" width="40" height="190"/>
    <rect x="580" y="150" width="25" height="150"/>
    <rect x="615" y="90" width="35" height="210"/>
    <rect x="660" y="130" width="20" height="170"/>
    <rect x="690" y="70" width="30" height="230"/>
    <rect x="730" y="150" width="40" height="150"/>
    <rect x="780" y="100" width="25" height="200"/>
    <rect x="815" y="160" width="30" height="140"/>
    <rect x="855" y="120" width="20" height="180"/>
    <rect x="885" y="50" width="15" height="250"/>
    <rect x="910" y="140" width="40" height="160"/>
    <rect x="960" y="80" width="30" height="220"/>
    <rect x="1000" y="150" width="20" height="150"/>
    <rect x="1030" y="90" width="45" height="210"/>
    <rect x="1085" y="130" width="30" height="170"/>
    <rect x="1125" y="150" width="40" height="150"/>
    <rect x="1175" y="100" width="25" height="200"/>
  </g>
  
  <!-- Windows (neon lights) -->
  <g fill="#0FFCD8" opacity="0.7">
    <!-- Building windows (simplified) -->
    <rect x="5" y="160" width="5" height="5"/>
    <rect x="5" y="180" width="5" height="5"/>
    <rect x="5" y="200" width="5" height="5"/>
    <rect x="20" y="160" width="5" height="5"/>
    <rect x="20" y="180" width="5" height="5"/>
    <rect x="20" y="200" width="5" height="5"/>
    
    <rect x="45" y="190" width="5" height="5"/>
    <rect x="45" y="210" width="5" height="5"/>
    <rect x="55" y="190" width="5" height="5"/>
    <rect x="55" y="210" width="5" height="5"/>
    
    <!-- Add more windows for all buildings -->
    <!-- ... -->
  </g>
  
  <!-- Overlay gradient -->
  <rect width="1200" height="300" fill="url(#skyGradient)" opacity="0.3"/>
</svg> 