<svg width="32" height="32" xmlns="http://www.w3.org/2000/svg">
  <defs>
    <linearGradient id="bg" x1="0%" y1="0%" x2="100%" y2="100%">
      <stop offset="0%" stop-color="#2D0B59"/>
      <stop offset="100%" stop-color="#0D0221"/>
    </linearGradient>
    <filter id="glow" x="-30%" y="-30%" width="160%" height="160%">
      <feGaussianBlur stdDeviation="1.5" result="blur"/>
      <feComposite in="SourceGraphic" in2="blur" operator="over"/>
    </filter>
  </defs>
  
  <!-- Background -->
  <rect width="32" height="32" rx="4" fill="url(#bg)"/>
  
  <!-- Synthesizer Keys -->
  <g filter="url(#glow)">
    <rect x="6" y="12" width="4" height="12" rx="1" fill="#FFFFFF" opacity="0.9"/>
    <rect x="12" y="12" width="4" height="12" rx="1" fill="#FFFFFF" opacity="0.9"/>
    <rect x="18" y="12" width="4" height="12" rx="1" fill="#FFFFFF" opacity="0.9"/>
    <rect x="24" y="12" width="4" height="12" rx="1" fill="#FFFFFF" opacity="0.9"/>
    
    <!-- Black keys -->
    <rect x="9" y="12" width="3" height="8" rx="1" fill="#000000"/>
    <rect x="15" y="12" width="3" height="8" rx="1" fill="#000000"/>
    <rect x="21" y="12" width="3" height="8" rx="1" fill="#000000"/>
  </g>
  
  <!-- Top panel with knobs -->
  <rect x="6" y="5" width="22" height="5" rx="1" fill="#0D0221" stroke="#00C9FF" stroke-width="0.5"/>
  <circle cx="12" cy="7.5" r="1.5" fill="#FF1E88"/>
  <circle cx="18" cy="7.5" r="1.5" fill="#0FFCD8"/>
  <circle cx="24" cy="7.5" r="1.5" fill="#00C9FF"/>
</svg> 